#N canvas 179 115 925 441 10;
#X text 6 1 Semblance of a Whole \; Performance Audio Player. \; This
version \, the click tracks act as a conductor \, cuing section and
tempo changes but not providing a click anywhere else.;
#X text 7 75 Vincent Giles \, 2015;
#X msg 10 128 \; pd dsp 0;
#X msg 86 128 \; pd dsp 1;
#X text 10 114 Audio Off;
#X text 85 114 Audio On;
#X obj 11 167 loadbang;
#X obj 10 189 t b b b;
#X msg 42 256 open Inst1.wav;
#X msg 183 256 open Inst2.wav;
#X msg 325 256 open Inst3.wav;
#X obj 42 284 readsf~ 2;
#X obj 183 284 readsf~ 2;
#X obj 325 284 readsf~ 2;
#X obj 169 129 bng 45 250 50 0 empty empty StopAll 0 -9 0 10 -258113
-1 -1;
#X obj 169 183 t b b b;
#X msg 103 285 stop;
#X msg 245 284 stop;
#X msg 386 284 stop;
#X obj 256 129 bng 45 250 50 0 empty empty Reloadll 0 -9 0 10 -4034
-1 -1;
#X obj 256 183 t b b b;
#X obj 346 130 bng 45 250 50 0 empty empty PLAY 0 -9 0 10 -204800 -232576
-1;
#N canvas 472 316 648 344 volume......................... 0;
#X obj 13 -36 inlet~;
#X obj 61 -36 inlet~;
#X obj 191 -35 inlet~;
#X obj 241 -36 inlet~;
#X obj 373 -36 inlet~;
#X obj 421 -36 inlet~;
#X obj 14 71 *~;
#X obj 61 69 *~;
#X obj 189 70 *~;
#X obj 236 68 *~;
#X obj 371 68 *~;
#X obj 418 66 *~;
#X obj 18 109 +~;
#X obj 192 109 +~;
#X obj 375 105 +~;
#X obj 17 146 outlet~;
#X obj 189 140 outlet~;
#X obj 375 138 outlet~;
#X obj 29 2 r vol1src;
#X obj 204 -6 r vol2src;
#X obj 386 -3 r vol3src;
#X obj 96 4 r vol1clk;
#X obj 269 -4 r vol2clk;
#X obj 455 -4 r vol3clk;
#X connect 0 0 6 0;
#X connect 1 0 7 0;
#X connect 2 0 8 0;
#X connect 3 0 9 0;
#X connect 4 0 10 0;
#X connect 5 0 11 0;
#X connect 6 0 12 0;
#X connect 7 0 12 1;
#X connect 8 0 13 0;
#X connect 9 0 13 1;
#X connect 10 0 14 0;
#X connect 11 0 14 1;
#X connect 12 0 15 0;
#X connect 13 0 16 0;
#X connect 14 0 17 0;
#X connect 18 0 6 1;
#X connect 19 0 8 1;
#X connect 20 0 10 1;
#X connect 21 0 7 1;
#X connect 22 0 9 1;
#X connect 23 0 11 1;
#X restore 223 337 pd volume.........................;
#X obj 222 377 dac~ 1 2 3;
#X obj 470 138 vsl 35 150 0 1 0 0 vol1src empty Inst1 0 -9 0 10 -204786
-4160 -1 11700 1;
#X obj 509 138 vsl 35 150 0 1 0 0 vol1clk empty Inst1Clk 0 -9 0 10
-204786 -4160 -1 11700 1;
#X obj 587 139 vsl 35 150 0 1 0 0 vol2src empty Inst2 0 -9 0 10 -262130
-4160 -1 11500 1;
#X obj 626 139 vsl 35 150 0 1 0 0 vol2clk empty Inst2Clk 0 -9 0 10
-262130 -4160 -1 11500 1;
#X obj 703 139 vsl 35 150 0 1 0 0 vol3src empty Inst3 0 -9 0 10 -261234
-4160 -1 11500 1;
#X obj 742 139 vsl 35 150 0 1 0 0 vol3clk empty Inst3Clk 0 -9 0 10
-261234 -4160 -1 11500 1;
#X msg 4 285 start;
#X msg 146 283 start;
#X msg 289 284 start;
#X obj 468 42 loadbang;
#X msg 468 69 0.7;
#X connect 6 0 7 0;
#X connect 7 0 8 0;
#X connect 7 1 9 0;
#X connect 7 2 10 0;
#X connect 8 0 11 0;
#X connect 9 0 12 0;
#X connect 10 0 13 0;
#X connect 11 0 22 0;
#X connect 11 1 22 1;
#X connect 12 0 22 2;
#X connect 12 1 22 3;
#X connect 13 0 22 4;
#X connect 13 1 22 5;
#X connect 14 0 15 0;
#X connect 15 0 16 0;
#X connect 15 1 17 0;
#X connect 15 2 18 0;
#X connect 16 0 11 0;
#X connect 17 0 12 0;
#X connect 18 0 13 0;
#X connect 19 0 20 0;
#X connect 20 0 8 0;
#X connect 20 1 9 0;
#X connect 20 2 10 0;
#X connect 21 0 30 0;
#X connect 21 0 31 0;
#X connect 21 0 32 0;
#X connect 22 0 23 0;
#X connect 22 1 23 1;
#X connect 22 2 23 2;
#X connect 24 0 25 0;
#X connect 26 0 27 0;
#X connect 28 0 29 0;
#X connect 30 0 11 0;
#X connect 31 0 12 0;
#X connect 32 0 13 0;
#X connect 33 0 34 0;
#X connect 34 0 24 0;
#X connect 34 0 25 0;
#X connect 34 0 26 0;
#X connect 34 0 27 0;
#X connect 34 0 28 0;
#X connect 34 0 29 0;
