#N canvas 6 23 1436 855 10;
#X msg 10 22 \; pd dsp 0;
#X msg 85 22 \; pd dsp 1;
#X text 9 7 Audio Off;
#X text 83 7 Audio On;
#X obj 663 207 hradio 40 1 0 6 empty empty empty 0 -8 0 10 -257985
-4160 -1 3;
#X text 706 188 A;
#X text 749 188 B;
#X text 789 188 C;
#X text 828 188 D;
#X text 868 188 E;
#X obj 618 88 key;
#X obj 618 112 == 32;
#X obj 618 137 route 0 1;
#X msg 19 225 open Semblance_A_Inst1.wav;
#X msg 82 246 start;
#X text 18 207 A Section;
#X msg 258 245 start;
#X msg 192 224 open Semblance_A_Inst2.wav;
#X msg 431 246 start;
#X msg 360 225 open Semblance_A_Inst3.wav;
#X msg 77 318 start;
#X msg 251 317 start;
#X msg 429 318 start;
#X text 13 280 B Section;
#X msg 75 390 start;
#X msg 249 389 start;
#X msg 427 390 start;
#X text 14 351 C Section;
#X msg 77 467 start;
#X msg 251 466 start;
#X msg 429 467 start;
#X text 16 428 D Section;
#X msg 79 541 start;
#X msg 253 540 start;
#X msg 431 541 start;
#X text 18 502 E Section;
#X msg 17 296 open Semblance_B_Inst1.wav;
#X msg 190 296 open Semblance_B_Inst2.wav;
#X msg 358 297 open Semblance_B_Inst3.wav;
#X msg 15 369 open Semblance_C_Inst1.wav;
#X msg 188 367 open Semblance_C_Inst2.wav;
#X msg 356 369 open Semblance_C_Inst3.wav;
#X msg 16 446 open Semblance_D_Inst1.wav;
#X msg 190 445 open Semblance_D_Inst2.wav;
#X msg 358 446 open Semblance_D_Inst3.wav;
#X msg 19 519 open Semblance_E_Inst1.wav;
#X msg 192 519 open Semblance_E_Inst2.wav;
#X msg 360 520 open Semblance_E_Inst3.wav;
#X obj 616 163 counter 5;
#X obj 714 134 loadbang;
#X msg 713 161 0;
#X text 806 12 A Semblance of a Whole: Audio Score \; Vincent Giles
\, 2015 \; \; Instructions \; Switch Audio On \; Press SpaceBar for
each section change \; NOTE: Patch must be in the same directory as
files \, otherwise adjust names accordingly.;
#X obj 624 254 sel 0 1 2 3 4 5;
#X text 717 175 Each new section will stop the previous;
#X msg 432 270 stop;
#X msg 259 270 stop;
#X msg 82 267 stop;
#X msg 435 342 stop;
#X msg 257 342 stop;
#X msg 82 339 stop;
#X msg 434 417 stop;
#X msg 256 417 stop;
#X msg 81 414 stop;
#X msg 435 491 stop;
#X msg 257 491 stop;
#X msg 82 488 stop;
#X msg 434 571 stop;
#X msg 256 571 stop;
#X msg 81 568 stop;
#X obj 912 208 hradio 35 1 0 5 empty empty Reload_by_section 0 -8 0
10 -258113 -262130 -1 0;
#X text 927 242 To restart any section will require reloading all audio
files for that section.;
#X text 11 59 Stop All (Audio must be reloaded);
#X obj 780 803 dac~ 1 2 3;
#X text 845 793 These numbers need to represent the individual audio
outs from the interface.;
#X obj 839 366 vsl 20 100 0 1 0 0 empty empty Inst1 -5 -9 0 10 -261234
-1 -1 7700 1;
#X obj 874 366 vsl 20 100 0 1 0 0 empty empty Click1 -5 -9 0 10 -261234
-1 -1 7700 1;
#X obj 996 365 vsl 20 100 0 1 0 0 empty empty Inst2 -5 -9 0 10 -261234
-1 -1 7700 1;
#X obj 1031 365 vsl 20 100 0 1 0 0 empty empty Click2 -5 -9 0 10 -261234
-1 -1 7700 1;
#X obj 1131 366 vsl 20 100 0 1 0 0 empty empty Inst3 -5 -9 0 10 -261234
-1 -1 7100 1;
#X obj 1166 366 vsl 20 100 0 1 0 0 empty empty Click3 -5 -9 0 10 -261234
-1 -1 7100 1;
#X obj 824 658 *~;
#X obj 859 658 *~;
#X obj 981 657 *~;
#X obj 1016 657 *~;
#X obj 1116 657 *~;
#X obj 1151 657 *~;
#X obj 19 248 readsf~ 2;
#X obj 193 247 readsf~ 2;
#X obj 361 248 readsf~ 2;
#X obj 17 320 readsf~ 2;
#X obj 191 319 readsf~ 2;
#X obj 359 320 readsf~ 2;
#X obj 15 392 readsf~ 2;
#X obj 189 391 readsf~ 2;
#X obj 357 392 readsf~ 2;
#X obj 19 543 readsf~ 2;
#X obj 193 542 readsf~ 2;
#X obj 361 543 readsf~ 2;
#X obj 359 469 readsf~ 2;
#X obj 17 469 readsf~ 2;
#X obj 191 468 readsf~ 2;
#X obj 254 142 loadbang;
#X obj 620 278 t b b;
#X obj 666 278 t b b;
#X obj 709 278 t b b;
#X obj 755 278 t b b;
#X obj 21 169 sel 0 1 2 3 4;
#X obj 1187 276 loadbang;
#X msg 1187 300 0.7;
#X obj 16 77 bng 45 250 50 0 empty empty empty 17 7 0 10 -258113 -1
-1;
#X connect 4 0 52 0;
#X connect 10 0 11 0;
#X connect 11 0 12 0;
#X connect 12 1 48 0;
#X connect 13 0 86 0;
#X connect 14 0 86 0;
#X connect 16 0 87 0;
#X connect 17 0 87 0;
#X connect 18 0 88 0;
#X connect 19 0 88 0;
#X connect 20 0 89 0;
#X connect 21 0 90 0;
#X connect 22 0 91 0;
#X connect 24 0 92 0;
#X connect 25 0 93 0;
#X connect 26 0 94 0;
#X connect 28 0 99 0;
#X connect 29 0 100 0;
#X connect 30 0 98 0;
#X connect 32 0 95 0;
#X connect 33 0 96 0;
#X connect 34 0 97 0;
#X connect 36 0 89 0;
#X connect 37 0 90 0;
#X connect 38 0 91 0;
#X connect 39 0 92 0;
#X connect 40 0 93 0;
#X connect 41 0 94 0;
#X connect 42 0 99 0;
#X connect 43 0 100 0;
#X connect 44 0 98 0;
#X connect 45 0 95 0;
#X connect 46 0 96 0;
#X connect 47 0 97 0;
#X connect 48 0 4 0;
#X connect 49 0 50 0;
#X connect 50 0 4 0;
#X connect 52 1 14 0;
#X connect 52 1 16 0;
#X connect 52 1 18 0;
#X connect 52 2 102 0;
#X connect 52 3 103 0;
#X connect 52 4 104 0;
#X connect 52 5 105 0;
#X connect 54 0 88 0;
#X connect 55 0 87 0;
#X connect 56 0 86 0;
#X connect 57 0 91 0;
#X connect 58 0 90 0;
#X connect 59 0 89 0;
#X connect 60 0 94 0;
#X connect 61 0 93 0;
#X connect 62 0 92 0;
#X connect 63 0 98 0;
#X connect 64 0 100 0;
#X connect 65 0 99 0;
#X connect 66 0 97 0;
#X connect 67 0 96 0;
#X connect 68 0 95 0;
#X connect 69 0 106 0;
#X connect 74 0 75 0;
#X connect 74 0 80 1;
#X connect 75 0 81 1;
#X connect 76 0 77 0;
#X connect 76 0 82 1;
#X connect 77 0 83 1;
#X connect 78 0 79 0;
#X connect 78 0 84 1;
#X connect 79 0 85 1;
#X connect 80 0 72 0;
#X connect 81 0 72 0;
#X connect 82 0 72 1;
#X connect 83 0 72 1;
#X connect 84 0 72 2;
#X connect 85 0 72 2;
#X connect 86 0 80 0;
#X connect 86 1 81 0;
#X connect 87 0 82 0;
#X connect 87 1 83 0;
#X connect 88 0 84 0;
#X connect 88 1 85 0;
#X connect 89 0 80 0;
#X connect 89 1 81 0;
#X connect 90 0 82 0;
#X connect 90 1 83 0;
#X connect 91 0 84 0;
#X connect 91 1 85 0;
#X connect 92 0 80 0;
#X connect 92 1 81 0;
#X connect 93 0 82 0;
#X connect 93 1 83 0;
#X connect 94 0 84 0;
#X connect 94 1 85 0;
#X connect 95 0 80 0;
#X connect 95 1 81 0;
#X connect 96 0 82 0;
#X connect 96 1 83 0;
#X connect 97 0 84 0;
#X connect 97 1 85 0;
#X connect 98 0 84 0;
#X connect 98 1 85 0;
#X connect 99 0 80 0;
#X connect 99 1 81 0;
#X connect 100 0 82 0;
#X connect 100 1 83 0;
#X connect 101 0 13 0;
#X connect 101 0 17 0;
#X connect 101 0 19 0;
#X connect 101 0 36 0;
#X connect 101 0 37 0;
#X connect 101 0 38 0;
#X connect 101 0 39 0;
#X connect 101 0 40 0;
#X connect 101 0 41 0;
#X connect 101 0 42 0;
#X connect 101 0 43 0;
#X connect 101 0 44 0;
#X connect 101 0 45 0;
#X connect 101 0 46 0;
#X connect 101 0 47 0;
#X connect 102 0 22 0;
#X connect 102 0 21 0;
#X connect 102 0 20 0;
#X connect 102 1 54 0;
#X connect 102 1 55 0;
#X connect 102 1 56 0;
#X connect 103 0 26 0;
#X connect 103 0 25 0;
#X connect 103 0 24 0;
#X connect 103 1 57 0;
#X connect 103 1 58 0;
#X connect 103 1 59 0;
#X connect 104 0 30 0;
#X connect 104 0 29 0;
#X connect 104 0 28 0;
#X connect 104 1 60 0;
#X connect 104 1 61 0;
#X connect 104 1 62 0;
#X connect 105 0 34 0;
#X connect 105 0 33 0;
#X connect 105 0 32 0;
#X connect 105 1 63 0;
#X connect 105 1 64 0;
#X connect 105 1 65 0;
#X connect 106 0 13 0;
#X connect 106 0 17 0;
#X connect 106 0 19 0;
#X connect 106 1 36 0;
#X connect 106 1 37 0;
#X connect 106 1 38 0;
#X connect 106 2 39 0;
#X connect 106 2 40 0;
#X connect 106 2 41 0;
#X connect 106 3 42 0;
#X connect 106 3 43 0;
#X connect 106 3 44 0;
#X connect 106 4 45 0;
#X connect 106 4 46 0;
#X connect 106 4 47 0;
#X connect 107 0 108 0;
#X connect 108 0 74 0;
#X connect 108 0 76 0;
#X connect 108 0 78 0;
#X connect 109 0 56 0;
#X connect 109 0 55 0;
#X connect 109 0 54 0;
#X connect 109 0 59 0;
#X connect 109 0 62 0;
#X connect 109 0 65 0;
#X connect 109 0 68 0;
#X connect 109 0 58 0;
#X connect 109 0 61 0;
#X connect 109 0 64 0;
#X connect 109 0 67 0;
#X connect 109 0 57 0;
#X connect 109 0 60 0;
#X connect 109 0 63 0;
#X connect 109 0 66 0;
